<?xml version="1.0" encoding="UTF-8"?>
<svg id="_레이어_2" data-name="레이어_2" xmlns="http://www.w3.org/2000/svg" viewBox="0 0 176.56 176.63">
  <defs>
    <style>
      .cls-1 {
        fill: #fff;
      }
    </style>
  </defs>
  <g id="_레이어_6" data-name="레이어_6">
    <g>
      <g>
        <path class="cls-1" d="M73.31,107.9c2.14-2.06,4.24-4.17,6.33-6.28.19-.19.32-.61.24-.84-.87-2.57-1.8-5.12-2.69-7.62-2.93,2.9-5.76,5.66-8.53,8.46-3.05,3.08-6.04,6.2-9.07,9.29-4.1,4.18-8.22,8.34-12.31,12.53-1.96,2.01-3.89,4.04-5.81,6.09-.2.21-.38.63-.3.86.64,1.97,1.34,3.93,2.04,5.93.85-.67,1.6-1.19,2.25-1.81,3.04-2.87,6.06-5.76,9.07-8.65,4.17-4,8.31-8.03,12.48-12.03,2.08-2,4.22-3.93,6.29-5.93Z"/>
        <path class="cls-1" d="M75.13,111.6c.27-.08.52-.17.77-.27,2.49-1.09,3.13-1.89,3.14-3.53-.98.97-1.98,1.96-2.99,2.93-.3.29-.61.58-.91.87Z"/>
        <path class="cls-1" d="M86.18,74.69c-.43-4.41,1.85-8.07,5.69-9.51,1.27-.48,2.55-.67,3.84-.67,1.43,0,2.87.24,4.29.58.28.07.53.1.76.1.56,0,1.02-.21,1.51-.74,2.95-3.12,5.97-6.17,8.96-9.25.07-.08.12-.18.29-.44-2.15-.62-4.21-1.29-6.31-1.8-2.96-.73-5.92-1.2-8.91-1.2-1.95,0-3.91.2-5.89.68-5.24,1.25-9.47,4.06-12.62,8.32-3.18,4.31-4.28,9.28-3.85,14.55.48,5.9,2.59,11.38,4.67,16.85,1.66,4.35,3.63,8.63,4.17,13.28.5,4.36-.05,7.17-5.32,9.47-1.51.66-3.06.88-4.63.88-1.17,0-2.35-.13-3.52-.29-.18-.02-.34-.04-.5-.04-.88,0-1.5.37-2.1.95-2.29,2.23-4.56,4.5-6.83,6.75-.17.16-.28.38-.45.61.47.12.84.19,1.2.3,4.12,1.2,8.29,2.1,12.61,2.1.29,0,.57,0,.86-.01,6.53-.18,11.94-2.57,16.15-7.64,2.69-3.24,3.8-6.97,3.95-11.05.19-5.49-1.58-10.6-3.26-15.71-1.85-5.63-4.19-11.09-4.77-17.08Z"/>
        <path class="cls-1" d="M5.05,166.98c-2.69,2.04-3.82,4.88-5.05,7.96.79-.32,1.41-.49,1.95-.79,1.53-.85,3.04-1.72,4.52-2.64.23-.15.45-.7.35-.93-.53-1.22-1.17-2.4-1.77-3.59Z"/>
        <path class="cls-1" d="M33.27,145.95c.22-.22.51-.63.44-.83-.65-1.81-1.38-3.59-2.03-5.26-2.93,2.91-5.81,5.72-8.65,8.58-3.18,3.21-6.33,6.46-9.47,9.71-.21.22-.45.61-.39.86.39,1.6.85,3.19,1.3,4.81.99-.81,1.88-1.46,2.68-2.2,2.96-2.79,5.91-5.59,8.83-8.42,2.46-2.39,4.88-4.82,7.31-7.24Z"/>
        <path class="cls-1" d="M12.24,162.3c-.49-1.7-.74-3.5-.89-5.27-.14-1.64.58-2.23,2.28-2.39.47-.05,1.04-.26,1.36-.59,1.83-1.86,3.6-3.79,5.52-5.83-2.03-.49-3.97-.92-5.94-.92-.63,0-1.26.04-1.89.15-3.36.54-6.02,2.09-7.55,5.2-1.21,2.47-1.05,5.08-.47,7.66.88,3.88,2.43,7.49,4.59,10.84,1.26,1.96,2.61,3.88,4.7,5.08.36.21.98.42,1.35.42.12,0,.21-.02.25-.07.4-.43.66-1.21.58-1.79-.15-1.13-.53-2.24-.89-3.33-.99-3.05-2.12-6.06-3.01-9.13Z"/>
        <path class="cls-1" d="M38.82,127.07c-.28-2.62.9-5.29,3.36-6.14,1.41-.49,3.07-.26,4.61-.4.39-.04.88-.13,1.14-.38,2.53-2.45,5.03-4.95,7.66-7.55-.6-.26-.89-.47-1.21-.52-3.14-.41-6.27-1.06-9.42-1.11-.1,0-.21,0-.31,0-5.03,0-9.21,2.14-12.17,6.26-2.44,3.39-3.14,7.28-2.58,11.4.57,4.18,2.32,7.97,3.81,11.86,1.03,2.7,1.9,5.47,2.75,8.23.31,1-.26,2.14-1.28,2.41-1.02.27-2.14.17-3.21.23-.04,0-.09,0-.14,0-.26,0-.56-.03-.82-.03s-.47.03-.61.16c-2.03,1.88-3.96,3.85-6.06,5.94,1.19.36,2.36.73,3.53,1.07,1.86.54,3.74.87,5.64.87,1.06,0,2.12-.1,3.2-.33,4.01-.85,7.4-4.5,7.93-8.5.5-3.82-.67-7.31-1.96-10.78-1.53-4.15-3.4-8.2-3.88-12.66Z"/>
        <path class="cls-1" d="M149.16,33.96c-2.45-3.13-4.97-6.2-7.44-9.31-.74-.93-1.58-1.84-2.11-2.88-1.52-2.97-3.56-5.35-6.52-7.05-3.52-2.02-7.25-3.47-11.17-4.37-3.29-.75-6.65-1.3-10.01-1.62-.19-.02-.37-.03-.54-.03-2.35,0-3.26,1.63-2.43,4.03.97,2.8,2.78,5.12,4.76,7.25,1.85,2,3.86,3.88,5.98,5.6,2.59,2.1,5.37,3.95,8.05,5.94,1.26.94,2.52,1.89,3.67,2.95.7.65,1.2,1.52,1.79,2.3,1.22,1.61,2.49,3.18,3.66,4.83,1.42,2.01,2.82,4.03,4.12,6.12,1.76,2.82,3.37,5.71,3.95,9.04.35,1.99-.2,2.99-1.9,4.14-1.79,1.21-3.68,1.62-5.62,1.62-1.21,0-2.43-.16-3.66-.39-2.64-.5-5.23-1.28-8.04-1.99-3.33,3.3-6.78,6.72-10.25,10.15.04.03.12.13.21.16,4.32,1.51,8.59,3.15,12.96,4.49,2.87.88,5.83,1.37,8.82,1.37,1.17,0,2.34-.07,3.51-.23,6.3-.82,11.49-3.67,15.31-8.78,1.82-2.43,2.75-5.19,2.97-8.18.37-5.08-1.16-9.75-3.29-14.27-1.83-3.88-4.12-7.5-6.77-10.89ZM130.07,24.14s-.05,0-.08,0c-1.15,0-2.05-.49-2.91-1.26-.29-.51-.64-1-.85-1.54-.33-.89.11-1.42,1.08-1.42h0c1.49,0,3.43,1.47,3.76,2.89.19.81-.04,1.31-1.01,1.33Z"/>
        <path class="cls-1" d="M90.06,74.02c.61-.59,1.21-1.22,1.84-1.87.38-.4.77-.8,1.16-1.19.82-.84,1.65-1.67,2.47-2.51-.83.02-1.58.15-2.28.42-2.14.8-3.32,2.72-3.18,5.16Z"/>
        <path class="cls-1" d="M130.45,53.24c2.08-2.01,4.12-4.07,6.18-6.11q1.2-1.19.19-2.56c-1.77-2.4-3.54-4.8-5.28-7.17-2.72,2.69-5.38,5.28-7.99,7.92-3.13,3.16-6.21,6.35-9.31,9.54-2.86,2.94-5.72,5.88-8.58,8.82-3.26,3.34-6.52,6.69-9.8,10.02-1.55,1.57-3.03,3.24-4.74,4.63-1.74,1.42-2.49,2.87-1.26,4.94.09.15.09.36.15.53.69,1.99,1.39,3.98,2.21,6.34,3.35-3.32,6.48-6.46,9.66-9.56,3.51-3.42,7.06-6.8,10.6-10.19,2.66-2.55,5.34-5.07,8.01-7.61,3.32-3.18,6.65-6.35,9.96-9.54Z"/>
        <path class="cls-1" d="M131.57,57.61c.98.25,1.93.47,2.88.65,1.17.22,2.1.32,2.93.32,1.39,0,2.45-.29,3.42-.95.1-.06.17-.12.24-.17,0-.01,0-.03,0-.05-.37-2.14-1.34-4.17-2.69-6.46-.28.28-.56.56-.84.84-1.41,1.4-2.86,2.85-4.32,4.26-.53.52-1.07,1.03-1.6,1.55Z"/>
        <path class="cls-1" d="M176.49,12.33c-.48-4.41-2.53-7.85-6.21-10.15C167.96.74,165.46,0,162.97,0c-2.9,0-5.78.99-8.32,2.98-3.46,2.71-5.25,6.43-5.13,10.88.03.92-.17,1.56-.88,2.1-.27.21-.5.47-.73.72-.88.94-1.35,2.01-.79,3.27.29.64.08,1.01-.38,1.44-1.02.95-1.99,1.95-2.89,2.84,2.48,3.13,4.85,6.12,7.28,9.18,1.15-1.14,2.4-2.3,3.56-3.55.44-.47.84-.78,1.37-.78.23,0,.48.06.77.18.2.09.45.13.7.13s.51-.04.71-.14c.7-.32,1.41-.74,1.92-1.29.78-.85,1.62-1.11,2.78-1.18,1.74-.11,3.53-.37,5.15-.97,5.12-1.89,9.05-7.58,8.4-13.48Z"/>
      </g>
      <g>
        <g>
          <path class="cls-1" d="M132.8,150.9c1.44-.17,2.78-.36,4.13-.49,1.89-.19,3.79-.35,5.69-.49,1.78-.13,3.56-.33,5.34-.31,4.72.06,9.46-.34,14.16.46,2.43.41,4.8,1.01,6.92,2.44,2.36,1.59,4.55,3.39,6.07,5.98,1.4,2.37,1.72,4.85.53,7.45-1.11,2.41-3.03,3.9-5.1,5.18-3.12,1.92-6.52,3.01-10.01,3.77-2.02.44-4.07.7-6.11,1-1.1.16-2.21.25-3.31.34-1.69.15-3.39.27-5.08.4.39-.26.79-.36,1.2-.41,1.93-.23,3.89-.34,5.8-.69,3.3-.61,6.58-1.35,9.7-2.74,2.34-1.04,4.58-2.24,6.34-4.28,1.12-1.3,1.92-2.83,1.84-4.66-.09-2.12-1.12-3.81-2.53-5.18-1.62-1.58-3.53-2.68-5.56-3.54-3.23-1.37-6.58-2.18-10.03-2.25-3.35-.07-6.71.16-10.07.3-1.16.05-2.31.19-3.47.34-1.49.19-2.97.44-4.46.61-.2.02-.53-.16-.63-.36-.47-.91-.88-1.85-1.36-2.89Z"/>
          <path class="cls-1" d="M132.8,150.9c.48,1.03.89,1.98,1.36,2.89.1.19.43.38.63.36,1.49-.18,2.97-.43,4.46-.61,1.15-.15,2.31-.29,3.47-.34,3.36-.14,6.71-.37,10.07-.3,3.45.07,6.8.88,10.03,2.25,2.02.86,3.93,1.96,5.56,3.54,1.41,1.37,2.44,3.06,2.53,5.18.08,1.83-.72,3.35-1.84,4.66-1.76,2.04-4,3.24-6.34,4.28-3.12,1.38-6.4,2.13-9.7,2.74-1.91.36-3.87.46-5.8.69-.41.05-.81.15-1.2.41,1.69-.13,3.39-.26,5.08-.4,1.11-.1,2.22-.18,3.31-.34,2.04-.3,4.09-.56,6.11-1,3.49-.76,6.89-1.85,10.01-3.77,2.07-1.27,3.99-2.76,5.1-5.18,1.19-2.6.87-5.08-.53-7.45-1.52-2.59-3.72-4.39-6.07-5.98-2.12-1.43-4.49-2.03-6.92-2.44-4.71-.8-9.44-.4-14.16-.46-1.78-.02-3.56.18-5.34.31-1.9.14-3.79.3-5.69.49-1.35.13-2.69.32-4.13.49Z"/>
        </g>
        <g>
          <path class="cls-1" d="M32.38,149.36c.1,0,.21,0,.31,0,.6,0,1.18-.02,1.64-.11-.15-.47-.29-.94-.43-1.4-.5.5-1.01,1.01-1.52,1.52Z"/>
          <g>
            <path class="cls-1" d="M11.62,160.79c-.16-.77-.28-1.54-.37-2.32l-1.74,2.05c.7.11,1.41.19,2.11.27Z"/>
            <path class="cls-1" d="M12.9,159c.16.67.34,1.33.52,1.99.6.06,1.21.13,1.81.19.63.07,1.25.13,1.88.19,1.79-1.69,3.57-3.39,5.34-5.09-.89-.06-1.78-.1-2.67-.17-1.4-.1-2.8-.22-4.21-.34-.76.79-1.53,1.57-2.29,2.36-.21.22-.45.61-.39.86Z"/>
            <path class="cls-1" d="M24.06,161.5l-1.02-.31c-.25.23-.5.48-.75.71,1.42.13,2.83.24,4.25.35-.83-.24-1.65-.49-2.48-.75Z"/>
            <path class="cls-1" d="M126.37,151.56c-1.9.25-3.8.53-5.7.78-1.37.18-2.74.33-4.11.51-1.54.2-3.07.44-4.61.63-1.49.19-2.99.33-4.49.51-1.76.21-3.52.43-5.28.64-.64.07-1.28.13-1.92.18-2.25.17-4.49.33-6.74.49-2.27.16-4.54.33-6.82.49-1.81.12-3.61.23-5.42.33-2.23.12-4.46.23-6.7.33-1.44.07-2.88.12-4.32.16-1.79.06-3.58.13-5.37.16-3.34.07-6.68.11-10.03.17-2.12.04-4.23.16-6.35.15-.88,0-1.76-.02-2.63-.03-1.99,2.82-4.98,4.95-8.36,5.73.31,0,.61.02.92.02,4.34.07,8.69.14,13.03.16,2.44,0,4.88-.07,7.33-.16,2.21-.08,4.41-.19,6.62-.32,2.47-.14,4.95-.3,7.42-.49,2.51-.19,5.03-.41,7.54-.65,2.68-.25,5.36-.53,8.03-.82,2.28-.25,4.56-.52,6.83-.82,2.29-.3,4.58-.65,6.87-.96,2.15-.29,4.3-.53,6.45-.83,1.68-.24,3.35-.55,5.03-.79,1.66-.24,3.32-.43,4.98-.68,2.04-.3,4.08-.65,6.12-.96,1.12-.17,2.24-.27,3.53-.43-.5-1.18-.92-2.22-1.38-3.24-.06-.14-.31-.28-.45-.26Z"/>
          </g>
        </g>
      </g>
      <g>
        <path class="cls-1" d="M50.6,95.04c4.18,2.48,8.35,4.97,12.54,7.41.01,0,.03.02.04.02.15-.15.29-.3.44-.45.82-.84,1.64-1.68,2.46-2.5.97-.98,1.93-1.94,2.9-2.9.98-.97,1.96-1.94,2.98-2.94.72-.71,1.44-1.42,2.17-2.14-.55-1.46-1.07-2.94-1.56-4.45-8.47,1.15-16.65,3.08-24.73,6.21,1,.63,1.87,1.21,2.77,1.74Z"/>
        <path class="cls-1" d="M79.24,108.46c-.06.06-.12.11-.17.17-.61.6-1.23,1.21-1.85,1.82.28.16.56.32.84.48.89-.67,1.18-1.39,1.19-2.46Z"/>
        <path class="cls-1" d="M3.75,0c.01.07.02.12.03.16,0-.1-.02-.2-.03-.16Z"/>
        <path class="cls-1" d="M6.49,44.03c0-.16,0-.24.05.12.03.18.22.4.38.49,3.05,1.79,6.26,3.04,9.71,3.45,1.18.14,2.36.27,3.54.32,1.45.05,2.92.11,4.37-.01,1.66-.14,3.3-.46,4.96-.67-6.62,2.96-13.52,4.67-20.8,5.29.35.93.63,1.79.99,2.62,1.65,3.78,3.75,7.25,6.14,10.52.29.4.63.59,1.14.59,1.74,0,3.48.18,5.22.13,3.47-.1,6.9-.65,10.23-1.77,1.47-.49,2.91-1.09,4.36-1.63.09-.03.19,0,.42,0-4.62,4.54-9.92,7.42-16.03,8.98,1.03,1.06,1.86,1.99,2.76,2.82,1.31,1.22,2.64,2.41,4.01,3.55,2.18,1.82,4.38,3.62,6.62,5.35,1.86,1.43,3.79,2.75,5.68,4.13.49.35.95.52,1.57.31,3.31-1.12,6.61-2.31,9.96-3.23,2.23-.61,4.54-.89,6.83-1.17,1.89-.23,3.82-.39,5.72-.32,2.62.1,5.19.49,7.68,1.31-.43-1.46-.81-2.95-1.11-4.46-.31-.25-.62-.51-.93-.76-2.04-1.67-4.12-3.27-6.15-4.95-2.37-1.95-4.72-3.92-7.06-5.92-2.03-1.73-4.04-3.5-6.06-5.26-1.67-1.45-3.35-2.89-5.01-4.36-1.55-1.37-3.08-2.77-4.61-4.16-1.42-1.28-2.85-2.56-4.26-3.86-.64-.58-1.24-1.21-1.86-1.82.04-.05.08-.1.12-.15,1.47,1.14,2.94,2.29,4.41,3.43,4.4,3.38,8.81,6.76,13.22,10.14,3.74,2.88,7.49,5.75,11.22,8.64,2.12,1.64,4.25,3.27,6.37,4.91-.01-.12-.03-.23-.04-.35-.35-4.25.19-8.17,1.58-11.72-1.57-1.42-3.15-2.83-4.74-4.23-3.01-2.63-6.07-5.19-9.09-7.8-3.24-2.79-6.46-5.61-9.69-8.42-.86-.75-1.73-1.49-2.67-2.31-1.52,4.02-2.15,8.2-2.54,12.58-.09-.78-.2-1.42-.22-2.07-.07-1.87-.09-3.74-.16-5.61-.09-2.35-.16-4.7-.33-7.04-.04-.52-.38-1.11-.75-1.47-1.65-1.62-3.37-3.14-5.05-4.73-1.36-1.3-2.69-2.63-4.11-4.02-1.01,3.51-2.01,6.99-3.02,10.48-.04,0-.07-.01-.11-.02.1-1.84.19-3.68.29-5.52,0-.11.01-.22.02-.33.05-2.22.08-4.45.16-6.67.03-.69-.21-1.19-.63-1.64-2.8-3.02-10.18-3.52-15.27-9.81-1.24-1.85-4.98-4.37-5.29-5.78C8.61,10.19,2.99,2.35,3.75,0,2.84,1.41-.87,3.63.19,29.22c1.71,11.26,4.58,10.86,6.3,14.82Z"/>
        <path class="cls-1" d="M135.28,158.17c-1.54-3.52-3.12-7.02-4.7-10.53-.18-.41-.43-.78-.62-1.18-.61-1.32-.12-2.89,1.18-3.33,1.3-.44,2.66-.72,4.01-.87,1.35-.14,2.72-.03,4.11-.03-2.63-1.76-5.55-1.83-8.69-1.48,1.75-1.74,3.79-2.67,5.7-3.82-.03-.07-.06-.15-.09-.22-1.62.75-3.24,1.5-5.05,2.33,1.31-2.59,1.92-5.16,1.72-7.93-.25,1.58-1.22,2.64-2.27,3.76-.3-1.89-.84-3.61-2.09-5.2.09.7.12,1.24.22,1.75.26,1.36-.09,2.64-.38,3.93-.2.87-.81,1.08-1.29.37-.71-1.04-1.33-2.18-1.87-3.34-1.45-3.06-2.72-6.22-4.29-9.21-1.91-3.65-3.97-7.23-6.12-10.73-1.78-2.88-3.72-5.64-5.72-8.35-2.21-3-4.53-5.89-6.86-8.78-1.29-1.6-2.65-3.13-4-4.67-.87.86-1.74,1.73-2.63,2.61.59,1.81,1.17,3.66,1.64,5.54.61.58,1.21,1.16,1.81,1.75,2.29,2.26,4.39,4.75,6.5,7.21,1.65,1.93,3.25,3.91,4.74,5.98,2.22,3.09,4.38,6.24,6.46,9.44,3.1,4.77,5.86,9.79,8.39,14.94,1.97,4,3.89,8.03,5.7,12.12,2.14,4.83,4.15,9.72,6.17,14.61.64,1.54,1.13,3.14,1.69,4.72-.08.03-.15.06-.23.1-.06-.05-.14-.08-.17-.14-1.1-2.09-2.67-3.74-4.22-5.41-.32-.34-.64-.74-.81-1.17-1.57-3.87-3.03-7.8-4.67-11.64-1.52-3.56-3.13-7.08-4.83-10.55-1.39-2.85-2.87-5.65-4.46-8.37-2.92-4.96-6.17-9.66-9.75-14.08-2.2-2.71-4.34-5.48-6.67-8.04-1.5-1.65-3.02-3.25-4.57-4.85.06.94.1,1.88.06,2.85-.17,4.8-1.48,8.84-4,12.3.14.09.27.17.41.26,4.6,2.95,9.16,5.98,13.59,9.2,3,2.18,5.77,4.73,8.6,7.16.96.83,1.8,1.82,2.69,2.74.09.09.18.21.2.33.04.27.15.66.04.8-.15.17-.51.21-.75.15-.95-.25-1.91-.48-2.82-.86-1.34-.56-2.64-1.23-3.88-1.82.24,1.81,2.93,4.42,7.88,4.83-1.31.22-2.62.52-3.94.62-1.33.11-2.67.02-3.87.02,1.57,1.53,4.8,1.95,7.49.81-.49,1.9-.38,3.71.34,5.41.49-1.01.96-2.04,1.48-3.05.52-1.04,1.98-1.8,3.11-1.1.65.4,1.19,1.22,1.51,1.98,1.17,2.78,2.34,5.58,3.31,8.45,1.3,3.81,2.46,7.68,3.6,11.56.38,1.28.77,2.22,2,2.97,2.62,1.6,5.03,3.6,7.52,5.44.04.03.09.02.25.06-.63-1.56-1.21-3.06-1.85-4.54-1.98-4.62-3.96-9.24-5.97-13.84Z"/>
        <path class="cls-1" d="M3.77.17c0,.1.01.19.02.15,0-.03,0-.07-.02-.15Z"/>
        <path class="cls-1" d="M6.54,44.15s-.04-.08-.05-.12c.01.24.06.66.05.12Z"/>
      </g>
    </g>
  </g>
</svg>